{
	"asset":{
		"generator":"Khronos glTF Blender I/O v4.0.44",
		"version":"2.0"
	},
	"scene":0,
	"scenes":[
		{
			"extras":{
				"sun_pos_properties":{
					"show_surface":0,
					"show_analemmas":0,
					"show_north":0,
					"latitude":0.0,
					"day_of_year":280,
					"sun_object":null,
					"object_collection":{},
					"sky_texture":"Pure-Sky Texture",
					"time":7.0,
					"longitude":0.0,
					"north_offset":0.0,
					"use_refraction":1,
					"sun_distance":50.0,
					"use_day_of_year":1,
					"day":7,
					"month":10,
					"year":2022,
					"UTC_zone":0.0,
					"use_daylight_savings":0
				},
				"puresky_properties":{
					"int_flag_updt_camera":0,
					"int_type_puresky":0,
					"int_camera_clipend":1000,
					"int_world_clipend":1000,
					"fl_cy_sun_intensity":0.30000001192092896,
					"fl_cy_sky_stars_gamma":1.5,
					"bool_cy_hlc_link":1,
					"bool_cy_mlc_link":1,
					"bool_cy_llc_link":1,
					"bool_cy_scc_link":0,
					"int_cycle_volume_max_step":10,
					"int_cycle_volume_bounces":0,
					"fl_cycles_sun_angle":0.0,
					"float_cycles_time_day":7.0,
					"int_cycles_day_of_year":280,
					"bool_cycles_use_day_of_year":1,
					"int_cycles_day":7,
					"int_cycles_month":10,
					"int_cycles_year":2022,
					"float_cycles_utc":0.0,
					"int_cycle_sample_viewport":10,
					"int_cycle_sample_render":10,
					"bool_fast_gi":0,
					"fl_fast_gi_ao_factor":1.0,
					"fl_cy_anim_anime":0.0,
					"cy_hlc_mask_image":{
						"name":"Paint Mask HLC 0",
						"type":"Image"
					},
					"cy_mlc_mask_image":{
						"name":"Paint Mask MLC",
						"type":"Image"
					},
					"cy_llc_mask_image":{
						"name":"Paint Mask LLC",
						"type":"Image"
					},
					"bool_render_region":0,
					"str_quality_mode":"FastGI",
					"fl_latitude":0.0,
					"fl_longitude":0.0,
					"flvec_cy_psp_pure_sky_texture_day":[
						0.15000000596046448,
						0.24801699817180634,
						0.5,
						1.0
					],
					"flvec_cy_psp_pure_sky_texture_night":[
						0.0,
						0.008000059984624386,
						0.019999999552965164,
						1.0
					],
					"flvec_cy_psp_pure_sky_texture_sunrise":[
						0.5,
						0.5,
						0.5,
						1.0
					],
					"flvec_cy_psp_pure_sky_texture_day_ground":[
						0.20000000298023224,
						0.42400500178337097,
						1.0,
						1.0
					],
					"flvec_cy_psp_pure_sky_texture_night_ground":[
						0.0,
						0.008115420117974281,
						0.020288599655032158,
						1.0
					],
					"flvec_cy_psp_pure_sky_texture_sunrise_ground":[
						0.05000000074505806,
						0.0700002983212471,
						0.10000000149011612,
						1.0
					],
					"flvec_cy_psp_pure_sky_texture_night_sky_glow":[
						0.11999999731779099,
						0.1920109987258911,
						0.30000001192092896,
						1.0
					],
					"fl_cy_psp_pure_sky_texture_night_sky_duration":1.0,
					"fl_cy_psp_pure_sky_texture_air":0.20000000298023224,
					"fl_cy_psp_pure_sky_texture_dust":1.0,
					"fl_cy_psp_pure_sky_texture_ozone":10.0,
					"fl_cy_psp_pure_sky_texture_altitude":1.0,
					"fl_cy_psp_pure_sky_texture_ground":0.20000000298023224,
					"fl_cy_psp_pure_sky_texture_day_brightness":0.5,
					"fl_cy_psp_pure_sky_texture_night_brightness":0.5,
					"fl_cy_psp_pure_sky_texture_sunrise_brightness":0.5,
					"fl_cy_psp_pure_sky_texture_sunrise_duration":0.5,
					"fl_cy_psp_pure_sky_texture_day_in_light":0.0,
					"fl_cy_psp_pure_sky_texture_night_in_light":1.0,
					"fl_cy_psp_pure_sky_texture_sunrise_in_light":1.0,
					"flvec_cy_psp_pure_sky_texture_ozone":[
						0.02500000037252903,
						0.035003699362277985,
						0.05000000074505806,
						1.0
					],
					"fl_cy_psp_pure_sky_texture_display_ozone":0.0,
					"fl_cy_psp_pure_sky_texture_ozone_altitude":10.0,
					"flvec_cy_psp_pure_sky_texture_stars":[
						1.0,
						1.0,
						1.0,
						1.0
					],
					"fl_cy_psp_pure_sky_texture_stars_gamma":1.5,
					"fl_cy_psp_pure_sky_texture_display_space":1.0,
					"fl_cy_psp_pure_sky_texture_space_altitude":200.0,
					"fl_cy_psp_pure_sky_texture_daytime_stars":0.05000000074505806,
					"flvec_cy_psp_pure_sky_texture_stars_texture":[
						0.0,
						0.0,
						1.0
					],
					"fl_cy_pspv_low_level_clouds_low_level_clouds":0.0,
					"fl_cy_llc_animate_wind_direction":0.0,
					"fl_cy_llc_animate_storm_wind":0.0,
					"fl_cy_llc_animate_storm_flow":0.0,
					"fl_cy_llc_animate_headwind":0.0,
					"fl_cy_llc_animate_headflow":0.0,
					"fl_cy_llc_animate_crosswind":0.0,
					"fl_cy_llc_animate_crossflow":0.0,
					"fl_cy_llc_animate_warm_air":0.0,
					"fl_cy_llc_animate_cold_air":0.0,
					"fl_cy_llc_animate_floor":2.0,
					"fl_cy_llc_animate_air_rise":3.0,
					"fl_cy_llc_animate_floor_hardness":2.0,
					"fl_cy_llc_animate_ceiling_hardness":1.0,
					"fl_cy_llc_anvil_drag_tropopause_altitude":15.0,
					"fl_cy_llc_anvil_drag_tropopause_hardness":0.30000001192092896,
					"fl_cy_llc_anvil_drag_add_tropopause":0.6000000238418579,
					"fl_cy_llc_anvil_drag_anvil_diameter":0.5,
					"fl_cy_llc_anvil_drag_anvil_cotton":0.0,
					"fl_cy_llc_anvil_drag_anvil_height":8.0,
					"fl_cy_llc_anvil_drag_add_anvil":1.0,
					"fl_cy_llc_anvil_drag_drag_cotton":0.0,
					"fl_cy_llc_anvil_drag_drag_height":2.5,
					"fl_cy_llc_anvil_drag_drag_diameter":-4.0,
					"fl_cy_llc_anvil_drag_drag_undulating":0.0,
					"fl_cy_llc_anvil_drag_smooth_undulating":2.0,
					"fl_cy_llc_clouds_shape_compress_level":-1.0,
					"fl_cy_llc_clouds_shape_compress_cell":1.0,
					"fl_cy_llc_clouds_shape_cell_length":0.0,
					"fl_cy_llc_clouds_shape_cell_width":0.0,
					"fl_cy_llc_clouds_shape_wind_skew":0.0,
					"fl_cy_llc_clouds_shape_scattering":0.0,
					"fl_cy_llc_clouds_shape_variation":0.0,
					"fl_cy_llc_clouds_shape_altitude":3.0,
					"fl_cy_llc_clouds_shape_density":10.0,
					"fl_cy_llc_clouds_shape_seed":0.0,
					"fl_cy_llc_clouds_shape_flip":0.0,
					"fl_cy_llc_clouds_shape_scale":2.0,
					"fl_cy_llc_clouds_shape_rigid":0.0,
					"fl_cy_llc_clouds_shape_debris":0.0,
					"fl_cy_llc_clouds_shape_smooth":0.0,
					"fl_cy_llc_clouds_shape_coverage":0.0,
					"fl_cy_llc_clouds_shape_compress":0.5,
					"fl_cy_llc_clouds_shape_add_level":0.5,
					"fl_cy_llc_clouds_shape_add_swelling":1.0,
					"fl_cy_llc_clouds_shape_add_noise":1.0,
					"fl_cy_llc_clouds_shape_add_tousling":0.30000001192092896,
					"fl_cy_llc_clouds_shape_add_floor_tousling":0.0,
					"fl_cy_llc_clouds_shape_add_cotton":0.0,
					"fl_cy_llc_clouds_shape_scale_swelling":1.2000000476837158,
					"fl_cy_llc_clouds_shape_scale_tousling":4.0,
					"fl_cy_llc_clouds_shape_scale_cotton":0.25,
					"fl_cy_llc_clouds_shape_scale_cell":1.2000000476837158,
					"fl_cy_llc_clouds_shape_scale_level":0.699999988079071,
					"fl_cy_llc_clouds_shape_scale_noise":4.0,
					"fl_cy_llc_clouds_shape_smooth_level":1.5,
					"fl_cy_llc_clouds_shape_smooth_noise":1.2999999523162842,
					"fl_cy_llc_clouds_shape_smooth_swelling":1.5,
					"fl_cy_llc_clouds_shape_smooth_tousling":0.699999988079071,
					"fl_cy_llc_clouds_shape_cotton_details":5.0,
					"fl_cy_llc_clouds_shape_tousling_details":8.0,
					"fl_cy_llc_clouds_shape_cotton_distorsion":0.20000000298023224,
					"fl_cy_llc_clouds_shape_tousling_distorsion":0.19999998807907104,
					"fl_cy_llc_clouds_shape_cotton_roughness":0.5,
					"fl_cy_llc_clouds_shape_tousling_roughness":1.0,
					"fl_cy_llc_clouds_shape_display_mask":0.0,
					"flvec_cy_llc_mask_llc_inputs_103":[
						0.0,
						0.0,
						0.0,
						1.0
					]
				},
				"HubsComponentsExtensionProperties":{},
				"hubs_component_list":{},
				"rflow_props":{},
				"recast_navmesh":{},
				"expanded_sky_manage":1,
				"qremesher":{}
			},
			"name":"Scene",
			"nodes":[
				2
			]
		}
	],
	"nodes":[
		{
			"extras":{
				"hubs_component_list":{},
				"Treezy":{},
				"curvebash":{},
				"xrengine.EE_collider.shape":"mesh",
				"xrengine.entity":"Mesh Collider"
			},
			"mesh":0,
			"name":"Collider"
		},
		{
			"extras":{
				"hubs_component_list":{},
				"Treezy":{},
				"curvebash":{}
			},
			"mesh":1,
			"name":"Folly_block_1"
		},
		{
			"children":[
				0,
				1
			],
			"extras":{
				"hubs_component_list":{},
				"Treezy":{}
			},
			"name":"Folly_block_1.001"
		}
	],
	"meshes":[
		{
			"name":"Cube.002",
			"primitives":[
				{
					"attributes":{
						"POSITION":0,
						"NORMAL":1,
						"TEXCOORD_0":2
					},
					"indices":3
				}
			]
		},
		{
			"name":"Cube.001",
			"primitives":[
				{
					"attributes":{
						"POSITION":4,
						"NORMAL":5,
						"TEXCOORD_0":6
					},
					"indices":7
				}
			]
		}
	],
	"accessors":[
		{
			"bufferView":0,
			"componentType":5126,
			"count":1318,
			"max":[
				8.804965019226074,
				5.124738693237305,
				3.2298943996429443
			],
			"min":[
				-3.461561441421509,
				-0.0170365571975708,
				-10.904648780822754
			],
			"type":"VEC3"
		},
		{
			"bufferView":1,
			"componentType":5126,
			"count":1318,
			"type":"VEC3"
		},
		{
			"bufferView":2,
			"componentType":5126,
			"count":1318,
			"type":"VEC2"
		},
		{
			"bufferView":3,
			"componentType":5123,
			"count":3684,
			"type":"SCALAR"
		},
		{
			"bufferView":4,
			"componentType":5126,
			"count":2150,
			"max":[
				8.804965019226074,
				5.124738693237305,
				3.2298943996429443
			],
			"min":[
				-3.461561441421509,
				-0.0170365571975708,
				-10.904648780822754
			],
			"type":"VEC3"
		},
		{
			"bufferView":5,
			"componentType":5126,
			"count":2150,
			"type":"VEC3"
		},
		{
			"bufferView":6,
			"componentType":5126,
			"count":2150,
			"type":"VEC2"
		},
		{
			"bufferView":7,
			"componentType":5123,
			"count":5316,
			"type":"SCALAR"
		}
	],
	"bufferViews":[
		{
			"buffer":0,
			"byteLength":15816,
			"byteOffset":0,
			"target":34962
		},
		{
			"buffer":0,
			"byteLength":15816,
			"byteOffset":15816,
			"target":34962
		},
		{
			"buffer":0,
			"byteLength":10544,
			"byteOffset":31632,
			"target":34962
		},
		{
			"buffer":0,
			"byteLength":7368,
			"byteOffset":42176,
			"target":34963
		},
		{
			"buffer":0,
			"byteLength":25800,
			"byteOffset":49544,
			"target":34962
		},
		{
			"buffer":0,
			"byteLength":25800,
			"byteOffset":75344,
			"target":34962
		},
		{
			"buffer":0,
			"byteLength":17200,
			"byteOffset":101144,
			"target":34962
		},
		{
			"buffer":0,
			"byteLength":10632,
			"byteOffset":118344,
			"target":34963
		}
	],
	"buffers":[
		{
			"byteLength":128976,
			"uri":"block_folly_1.bin"
		}
	]
}
