{
	"asset":{
		"generator":"Khronos glTF Blender I/O v4.0.44",
		"version":"2.0"
	},
	"scene":0,
	"scenes":[
		{
			"extras":{
				"sun_pos_properties":{
					"show_surface":0,
					"show_analemmas":0,
					"show_north":0,
					"latitude":0.0,
					"day_of_year":280,
					"sun_object":null,
					"object_collection":{},
					"sky_texture":"Pure-Sky Texture",
					"time":8.616155624389648,
					"longitude":0.0,
					"north_offset":-1.6399999856948853,
					"use_refraction":1,
					"sun_distance":50.0,
					"use_day_of_year":1,
					"day":7,
					"month":10,
					"year":2022,
					"UTC_zone":0.0,
					"use_daylight_savings":0
				},
				"puresky_properties":{
					"int_flag_updt_camera":0,
					"int_type_puresky":0,
					"int_camera_clipend":1000,
					"int_world_clipend":1000,
					"fl_cy_sun_intensity":0.30000001192092896,
					"fl_cy_sky_stars_gamma":1.5,
					"bool_cy_hlc_link":1,
					"bool_cy_mlc_link":1,
					"bool_cy_llc_link":1,
					"bool_cy_scc_link":0,
					"int_cycle_volume_max_step":10,
					"int_cycle_volume_bounces":0,
					"fl_cycles_sun_angle":-94.0540542602539,
					"float_cycles_time_day":8.616155624389648,
					"int_cycles_day_of_year":280,
					"bool_cycles_use_day_of_year":1,
					"int_cycles_day":7,
					"int_cycles_month":10,
					"int_cycles_year":2022,
					"float_cycles_utc":0.0,
					"int_cycle_sample_viewport":10,
					"int_cycle_sample_render":10,
					"bool_fast_gi":1,
					"fl_fast_gi_ao_factor":1.0,
					"fl_cy_anim_anime":0.0,
					"cy_hlc_mask_image":{
						"name":"Paint Mask HLC 0",
						"type":"Image"
					},
					"cy_mlc_mask_image":{
						"name":"Paint Mask MLC",
						"type":"Image"
					},
					"cy_llc_mask_image":{
						"name":"Paint Mask LLC",
						"type":"Image"
					},
					"bool_render_region":0,
					"str_quality_mode":"FastGI",
					"fl_latitude":0.0,
					"fl_longitude":0.0,
					"flvec_cy_psp_pure_sky_texture_day":[
						0.05000000074505806,
						0.23000000417232513,
						0.5,
						1.0
					],
					"flvec_cy_psp_pure_sky_texture_night":[
						0.0,
						0.008000059984624386,
						0.019999999552965164,
						1.0
					],
					"flvec_cy_psp_pure_sky_texture_sunrise":[
						0.5,
						0.5,
						0.5,
						1.0
					],
					"flvec_cy_psp_pure_sky_texture_day_ground":[
						0.10000000149011612,
						0.25979501008987427,
						0.5,
						1.0
					],
					"flvec_cy_psp_pure_sky_texture_night_ground":[
						0.0,
						0.008115420117974281,
						0.020288599655032158,
						1.0
					],
					"flvec_cy_psp_pure_sky_texture_sunrise_ground":[
						0.05000000074505806,
						0.0700002983212471,
						0.10000000149011612,
						1.0
					],
					"flvec_cy_psp_pure_sky_texture_night_sky_glow":[
						0.11999999731779099,
						0.1920109987258911,
						0.30000001192092896,
						1.0
					],
					"fl_cy_psp_pure_sky_texture_night_sky_duration":1.0,
					"fl_cy_psp_pure_sky_texture_air":0.800000011920929,
					"fl_cy_psp_pure_sky_texture_dust":0.20000000298023224,
					"fl_cy_psp_pure_sky_texture_ozone":2.0,
					"fl_cy_psp_pure_sky_texture_altitude":1.5,
					"fl_cy_psp_pure_sky_texture_ground":0.20000000298023224,
					"fl_cy_psp_pure_sky_texture_day_brightness":0.5,
					"fl_cy_psp_pure_sky_texture_night_brightness":0.5,
					"fl_cy_psp_pure_sky_texture_sunrise_brightness":0.5,
					"fl_cy_psp_pure_sky_texture_sunrise_duration":0.5,
					"fl_cy_psp_pure_sky_texture_day_in_light":0.0,
					"fl_cy_psp_pure_sky_texture_night_in_light":1.0,
					"fl_cy_psp_pure_sky_texture_sunrise_in_light":1.0,
					"flvec_cy_psp_pure_sky_texture_ozone":[
						0.02500000037252903,
						0.035003699362277985,
						0.05000000074505806,
						1.0
					],
					"fl_cy_psp_pure_sky_texture_display_ozone":0.0,
					"fl_cy_psp_pure_sky_texture_ozone_altitude":10.0,
					"flvec_cy_psp_pure_sky_texture_stars":[
						1.0,
						1.0,
						1.0,
						1.0
					],
					"fl_cy_psp_pure_sky_texture_stars_gamma":1.5,
					"fl_cy_psp_pure_sky_texture_display_space":1.0,
					"fl_cy_psp_pure_sky_texture_space_altitude":200.0,
					"fl_cy_psp_pure_sky_texture_daytime_stars":0.05000000074505806,
					"flvec_cy_psp_pure_sky_texture_stars_texture":[
						0.0,
						-0.004587159957736731,
						0.9999889731407166
					]
				},
				"true_sky":{
					"use_true_sky":0,
					"stored_settings":{
						"space_clip_start":0.009999999776482582,
						"space_clip_end":1000.0,
						"camera":{
							"name":"Camera",
							"type":"Camera"
						},
						"camera_clip_start":0.10000000149011612,
						"camera_clip_end":100.0,
						"render_engine":"CYCLES",
						"samples_viewport_use_threshold":1,
						"samples_viewport":1024,
						"use_fast_gi":1,
						"samples_render_use_threshold":1,
						"samples_render":4096,
						"volume_step_rate":1.0,
						"volume_preview_step_rate":1.0,
						"volume_max_steps":1024,
						"volume_bounces":0,
						"transparent_max_bounces":8,
						"view_transform":"AgX",
						"view_look":"None",
						"view_exposure":0.0,
						"view_gamma":1.0,
						"is_caustics_light":0
					},
					"use_moon_lamp":0,
					"moon_object":{
						"name":"tSky_Moon_Lamp",
						"type":"Object"
					},
					"enable_ae":0,
					"use_sun_position_addon":1,
					"use_sun_object":0,
					"panel_tabs":0,
					"cloud_preset":{
						"cloud_material":{
							"name":"tVFX_Clouds-Scene",
							"type":"Material"
						},
						"cloud_object":{
							"name":"tVFX-Clouds",
							"type":"Object"
						}
					},
					"use_true_clouds":0,
					"presets":{
						"full_sky_preset":{
							"presets":[
								{
									"name":"Default",
									"display_name":"Default"
								},
								{
									"name":"Morning",
									"display_name":"Morning"
								},
								{
									"name":"Mid-Morning",
									"display_name":"Mid-Morning"
								},
								{
									"name":"Midday",
									"display_name":"Midday"
								},
								{
									"name":"Azure Afternoon",
									"display_name":"Azure Afternoon"
								},
								{
									"name":"Dusty Afternoon",
									"display_name":"Dusty Afternoon"
								},
								{
									"name":"Dusk",
									"display_name":"Dusk"
								},
								{
									"name":"Dusty Dusk",
									"display_name":"Dusty Dusk"
								},
								{
									"name":"Alien Morning",
									"display_name":"Alien Morning"
								},
								{
									"name":"Alien Gas Desert",
									"display_name":"Alien Gas Desert"
								},
								{
									"name":"Alien Day",
									"display_name":"Alien Day"
								},
								{
									"name":"Mars",
									"display_name":"Mars"
								}
							]
						},
						"time_preset":{
							"presets":[
								{
									"name":"Sunrise",
									"display_name":"Sunrise"
								},
								{
									"name":"Morning - Golden Hour End",
									"display_name":"Morning - Golden Hour End"
								},
								{
									"name":"Mid-Morning",
									"display_name":"Mid-Morning"
								},
								{
									"name":"Noon",
									"display_name":"Noon"
								},
								{
									"name":"Afternoon",
									"display_name":"Afternoon"
								},
								{
									"name":"Evening - Golden Hour Start",
									"display_name":"Evening - Golden Hour Start"
								},
								{
									"name":"Sunset",
									"display_name":"Sunset"
								}
							]
						},
						"sol_hsv_preset":{
							"presets":[
								{
									"name":"Base",
									"display_name":"Base"
								},
								{
									"name":"Test",
									"display_name":"Mars"
								},
								{
									"name":"Venus",
									"display_name":"Venus"
								},
								{
									"name":"Saturated",
									"display_name":"Saturated"
								},
								{
									"name":"Desaturated",
									"display_name":"Desaturated"
								}
							]
						},
						"atmosphere_preset":{
							"presets":[
								{
									"name":"Clear",
									"display_name":"Clear"
								},
								{
									"name":"Dusty",
									"display_name":"Dusty"
								}
							]
						},
						"haze_preset":{
							"presets":[
								{
									"name":"Clear",
									"display_name":"Clear"
								},
								{
									"name":"Polluted",
									"display_name":"Polluted"
								},
								{
									"name":"Drab",
									"display_name":"Drab"
								},
								{
									"name":"Other",
									"display_name":"Mars"
								},
								{
									"name":"Green",
									"display_name":"Green"
								}
							]
						},
						"fog_preset":{
							"presets":[
								{
									"name":"Fog Clear",
									"display_name":"Fog Clear"
								},
								{
									"name":"Fog Dense",
									"display_name":"Fog Dense"
								},
								{
									"name":"",
									"display_name":"Fog Blanket"
								},
								{
									"name":"Fog Stormy",
									"display_name":"Fog Stormy"
								},
								{
									"name":"Fog (Sandy)",
									"display_name":"Fog (Sandy/Dust)"
								}
							]
						},
						"night_sky_preset":{
							"presets":[
								{
									"name":"Test",
									"display_name":"Clear Night"
								},
								{
									"name":"Clear Night w/o Moon",
									"display_name":"Clear Night w/o Moon"
								},
								{
									"name":"Test 2",
									"display_name":"Hazy Night"
								},
								{
									"name":"Hazy Night w/o Moon",
									"display_name":"Hazy Night w/o Moon"
								}
							]
						},
						"night_hdris_preset":{
							"presets":[
								{
									"name":"Earth Night",
									"display_name":"Earth Night"
								},
								{
									"name":"Interstellar Nursery",
									"display_name":"Interstellar Nursery"
								},
								{
									"name":"Black Hole",
									"display_name":"Black Hole"
								},
								{
									"name":"Blue Nebula",
									"display_name":"Blue Nebula"
								},
								{
									"name":"Red Nebula",
									"display_name":"Blue Clouds"
								},
								{
									"name":"Red Gas",
									"display_name":"Red Gas"
								},
								{
									"name":"Great Portal",
									"display_name":"Great Portal"
								},
								{
									"name":"Orange Nebula",
									"display_name":"Orange Nebula"
								}
							]
						},
						"moon_preset":{
							"presets":[
								{
									"name":"Base",
									"display_name":"Earth Moon"
								},
								{
									"name":"Super Moon",
									"display_name":"Super Moon"
								}
							]
						},
						"moon_phase_preset":{
							"presets":[
								{
									"name":"Waxing Crescent",
									"display_name":"Waxing Crescent"
								},
								{
									"name":"First Quarter",
									"display_name":"First Quarter"
								},
								{
									"name":"Waxing Gibbous",
									"display_name":"Waxing Gibbous"
								},
								{
									"name":"Full",
									"display_name":"Full"
								},
								{
									"name":"Waning Gibbous",
									"display_name":"Waning Gibbous"
								},
								{
									"name":"Third Quarter",
									"display_name":"Third Quarter"
								},
								{
									"name":"Waning Crescent",
									"display_name":"Waning Crescent"
								}
							]
						},
						"nebula_preset":{
							"presets":[
								{
									"name":"Base",
									"display_name":"Base"
								},
								{
									"name":"Pale Wisp",
									"display_name":"Pale Wisp"
								},
								{
									"name":"Golden Flares",
									"display_name":"Golden Flares"
								}
							]
						},
						"stars_preset":{
							"presets":[
								{
									"name":"Base",
									"display_name":"Base"
								},
								{
									"name":"Deep Space",
									"display_name":"Deep Space"
								},
								{
									"name":"Starry Night",
									"display_name":"Starry Night"
								}
							]
						},
						"night_clarity_preset":{
							"presets":[
								{
									"name":"Base",
									"display_name":"Base"
								},
								{
									"name":"Intense",
									"display_name":"City Lights"
								}
							]
						},
						"cloud_preset":{
							"presets":[
								{
									"name":"tVFX_Clouds-Stratocumulus",
									"display_name":"Stratocumulus"
								},
								{
									"name":"tVFX_Clouds-Cumulus Mediocris",
									"display_name":"Cumulus Mediocris"
								},
								{
									"name":"tVFX_Clouds-Cumulonimbus",
									"display_name":"Cumulonimbus"
								},
								{
									"name":"tVFX_Clouds-Cirrus",
									"display_name":"Cirrus"
								},
								{
									"name":"tVFX_Clouds-Altostratus Translucidus",
									"display_name":"Altostratus Translucidus"
								},
								{
									"name":"tVFX_Clouds-Altostratus Opacus",
									"display_name":"Altostratus Opacus"
								},
								{
									"name":"tVFX_Clouds-Altocumulus",
									"display_name":"Altocumulus"
								}
							]
						}
					},
					"performance":{
						"performance_items":[
							{
								"name":"Testing"
							},
							{
								"name":"Viewport Render Region"
							},
							{
								"name":"Pixel Size"
							},
							{
								"name":"Tile Size"
							},
							{
								"name":"True-Speed"
							}
						]
					}
				},
				"expanded1":1,
				"HubsComponentsExtensionProperties":{},
				"hubs_component_list":{},
				"expanded_sky_manage":1,
				"recast_navmesh":{}
			},
			"name":"Scene",
			"nodes":[
				2,
				6
			]
		}
	],
	"nodes":[
		{
			"extras":{
				"hubs_component_list":{},
				"Treezy":{},
				"xrengine.EE_collider.shape":"mesh",
				"xrengine.entity":"Mesh Collider"
			},
			"mesh":0,
			"name":"Collider.001"
		},
		{
			"extras":{
				"hubs_component_list":{},
				"Treezy":{}
			},
			"mesh":1,
			"name":"Curved_folly_2"
		},
		{
			"children":[
				0,
				1
			],
			"extras":{
				"hubs_component_list":{},
				"Treezy":{}
			},
			"name":"Curved_folly_2.001"
		},
		{
			"extras":{
				"hubs_component_list":{},
				"Treezy":{},
				"curvebash":{}
			},
			"mesh":2,
			"name":"Curved_Folly_2_Glass"
		},
		{
			"extras":{
				"hubs_component_list":{},
				"Treezy":{}
			},
			"mesh":3,
			"name":"Curved_Folly_2_large.001"
		},
		{
			"extras":{
				"hubs_component_list":{},
				"Treezy":{},
				"xrengine.EE_Collider.shape":"mesh",
				"xrengine.entity":"Mesh Collider"
			},
			"mesh":4,
			"name":"Collider"
		},
		{
			"children":[
				3,
				4,
				5
			],
			"extras":{
				"hubs_component_list":{},
				"Treezy":{}
			},
			"name":"Curved_Folly_2_large"
		}
	],
	"materials":[
		{
			"doubleSided":true,
			"extras":{
				"hubs_component_list":{}
			},
			"name":"Material",
			"pbrMetallicRoughness":{}
		}
	],
	"meshes":[
		{
			"name":"Cylinder.002",
			"primitives":[
				{
					"attributes":{
						"POSITION":0,
						"NORMAL":1,
						"TEXCOORD_0":2
					},
					"indices":3
				}
			]
		},
		{
			"name":"Cylinder.004",
			"primitives":[
				{
					"attributes":{
						"POSITION":4,
						"NORMAL":5,
						"TEXCOORD_0":6
					},
					"indices":3
				}
			]
		},
		{
			"name":"Cylinder.011",
			"primitives":[
				{
					"attributes":{
						"POSITION":7,
						"NORMAL":8,
						"TEXCOORD_0":9
					},
					"indices":10,
					"material":0
				}
			]
		},
		{
			"name":"Cylinder.001",
			"primitives":[
				{
					"attributes":{
						"POSITION":11,
						"NORMAL":12,
						"TEXCOORD_0":13
					},
					"indices":14
				}
			]
		},
		{
			"name":"Cylinder.003",
			"primitives":[
				{
					"attributes":{
						"POSITION":15,
						"NORMAL":16,
						"TEXCOORD_0":17
					},
					"indices":14
				}
			]
		}
	],
	"accessors":[
		{
			"bufferView":0,
			"componentType":5126,
			"count":1878,
			"max":[
				3.369781494140625,
				7.36440372467041,
				3.9679274559020996
			],
			"min":[
				-3.369781494140625,
				-0.19587862491607666,
				-3.369781494140625
			],
			"type":"VEC3"
		},
		{
			"bufferView":1,
			"componentType":5126,
			"count":1878,
			"type":"VEC3"
		},
		{
			"bufferView":2,
			"componentType":5126,
			"count":1878,
			"type":"VEC2"
		},
		{
			"bufferView":3,
			"componentType":5123,
			"count":5442,
			"type":"SCALAR"
		},
		{
			"bufferView":4,
			"componentType":5126,
			"count":1878,
			"max":[
				3.369781494140625,
				7.36440372467041,
				3.9679274559020996
			],
			"min":[
				-3.369781494140625,
				-0.19587862491607666,
				-3.369781494140625
			],
			"type":"VEC3"
		},
		{
			"bufferView":5,
			"componentType":5126,
			"count":1878,
			"type":"VEC3"
		},
		{
			"bufferView":6,
			"componentType":5126,
			"count":1878,
			"type":"VEC2"
		},
		{
			"bufferView":7,
			"componentType":5126,
			"count":272,
			"max":[
				6.864955902099609,
				7.480724811553955,
				3.5950822830200195
			],
			"min":[
				-6.715429306030273,
				4.566468238830566,
				0.5911237001419067
			],
			"type":"VEC3"
		},
		{
			"bufferView":8,
			"componentType":5126,
			"count":272,
			"type":"VEC3"
		},
		{
			"bufferView":9,
			"componentType":5126,
			"count":272,
			"type":"VEC2"
		},
		{
			"bufferView":10,
			"componentType":5123,
			"count":792,
			"type":"SCALAR"
		},
		{
			"bufferView":11,
			"componentType":5126,
			"count":1554,
			"max":[
				7.237407207489014,
				7.36440372467041,
				3.9679274559020996
			],
			"min":[
				-7.082540035247803,
				-0.19587862491607666,
				-3.369781494140625
			],
			"type":"VEC3"
		},
		{
			"bufferView":12,
			"componentType":5126,
			"count":1554,
			"type":"VEC3"
		},
		{
			"bufferView":13,
			"componentType":5126,
			"count":1554,
			"type":"VEC2"
		},
		{
			"bufferView":14,
			"componentType":5123,
			"count":5574,
			"type":"SCALAR"
		},
		{
			"bufferView":15,
			"componentType":5126,
			"count":1554,
			"max":[
				7.237407207489014,
				7.36440372467041,
				3.9679274559020996
			],
			"min":[
				-7.082540035247803,
				-0.19587862491607666,
				-3.369781494140625
			],
			"type":"VEC3"
		},
		{
			"bufferView":16,
			"componentType":5126,
			"count":1554,
			"type":"VEC3"
		},
		{
			"bufferView":17,
			"componentType":5126,
			"count":1554,
			"type":"VEC2"
		}
	],
	"bufferViews":[
		{
			"buffer":0,
			"byteLength":22536,
			"byteOffset":0,
			"target":34962
		},
		{
			"buffer":0,
			"byteLength":22536,
			"byteOffset":22536,
			"target":34962
		},
		{
			"buffer":0,
			"byteLength":15024,
			"byteOffset":45072,
			"target":34962
		},
		{
			"buffer":0,
			"byteLength":10884,
			"byteOffset":60096,
			"target":34963
		},
		{
			"buffer":0,
			"byteLength":22536,
			"byteOffset":70980,
			"target":34962
		},
		{
			"buffer":0,
			"byteLength":22536,
			"byteOffset":93516,
			"target":34962
		},
		{
			"buffer":0,
			"byteLength":15024,
			"byteOffset":116052,
			"target":34962
		},
		{
			"buffer":0,
			"byteLength":3264,
			"byteOffset":131076,
			"target":34962
		},
		{
			"buffer":0,
			"byteLength":3264,
			"byteOffset":134340,
			"target":34962
		},
		{
			"buffer":0,
			"byteLength":2176,
			"byteOffset":137604,
			"target":34962
		},
		{
			"buffer":0,
			"byteLength":1584,
			"byteOffset":139780,
			"target":34963
		},
		{
			"buffer":0,
			"byteLength":18648,
			"byteOffset":141364,
			"target":34962
		},
		{
			"buffer":0,
			"byteLength":18648,
			"byteOffset":160012,
			"target":34962
		},
		{
			"buffer":0,
			"byteLength":12432,
			"byteOffset":178660,
			"target":34962
		},
		{
			"buffer":0,
			"byteLength":11148,
			"byteOffset":191092,
			"target":34963
		},
		{
			"buffer":0,
			"byteLength":18648,
			"byteOffset":202240,
			"target":34962
		},
		{
			"buffer":0,
			"byteLength":18648,
			"byteOffset":220888,
			"target":34962
		},
		{
			"buffer":0,
			"byteLength":12432,
			"byteOffset":239536,
			"target":34962
		}
	],
	"buffers":[
		{
			"byteLength":251968,
			"uri":"curved_folly_2.bin"
		}
	]
}
