{
	"asset":{
		"generator":"Khronos glTF Blender I/O v4.0.44",
		"version":"2.0"
	},
	"extensionsUsed":[
		"KHR_materials_transmission",
		"KHR_materials_specular",
		"KHR_materials_ior"
	],
	"scene":0,
	"scenes":[
		{
			"name":"Scene",
			"nodes":[
				1
			]
		}
	],
	"nodes":[
		{
			"mesh":0,
			"name":"fractal_pergola_01_colliders"
		},
		{
			"children":[
				0
			],
			"mesh":1,
			"name":"fractal_pergola_01",
			"rotation":[
				0.7071068286895752,
				0,
				0,
				0.7071068286895752
			],
			"scale":[
				0.24543099105358124,
				0.24543099105358124,
				0.24543099105358124
			],
			"translation":[
				0,
				0,
				-72.49354553222656
			]
		}
	],
	"materials":[
		{
			"doubleSided":true,
			"extensions":{
				"KHR_materials_transmission":{
					"transmissionFactor":1
				},
				"KHR_materials_specular":{
					"specularColorFactor":[
						2.0,
						2.0,
						2.0
					]
				},
				"KHR_materials_ior":{
					"ior":1.5199999809265137
				}
			},
			"name":"concrete_plain",
			"pbrMetallicRoughness":{
				"baseColorTexture":{
					"index":0
				},
				"metallicFactor":0
			}
		}
	],
	"meshes":[
		{
			"name":"fractal_pergola_01_colliders",
			"primitives":[
				{
					"attributes":{
						"POSITION":0,
						"NORMAL":1,
						"TEXCOORD_0":2
					},
					"indices":3
				}
			]
		},
		{
			"name":"fractal_pergola_01",
			"primitives":[
				{
					"attributes":{
						"POSITION":4,
						"NORMAL":5,
						"TEXCOORD_0":6
					},
					"indices":7,
					"material":0
				}
			]
		}
	],
	"textures":[
		{
			"sampler":0,
			"source":0
		}
	],
	"images":[
		{
			"mimeType":"image/jpeg",
			"name":"concrete_big_diff",
			"uri":"concrete_big_diff.jpg"
		}
	],
	"accessors":[
		{
			"bufferView":0,
			"componentType":5126,
			"count":589,
			"max":[
				-194.60189819335938,
				-172.15199279785156,
				-1.1200000047683716
			],
			"min":[
				-421.9942932128906,
				-248.88319396972656,
				-86.14859771728516
			],
			"type":"VEC3"
		},
		{
			"bufferView":1,
			"componentType":5126,
			"count":589,
			"type":"VEC3"
		},
		{
			"bufferView":2,
			"componentType":5126,
			"count":589,
			"type":"VEC2"
		},
		{
			"bufferView":3,
			"componentType":5123,
			"count":1626,
			"type":"SCALAR"
		},
		{
			"bufferView":4,
			"componentType":5126,
			"count":6484,
			"max":[
				-196.19749450683594,
				-173.47999572753906,
				-2.671999931335449
			],
			"min":[
				-420.2987060546875,
				-247.59959411621094,
				-84.44490051269531
			],
			"type":"VEC3"
		},
		{
			"bufferView":5,
			"componentType":5126,
			"count":6484,
			"type":"VEC3"
		},
		{
			"bufferView":6,
			"componentType":5126,
			"count":6484,
			"type":"VEC2"
		},
		{
			"bufferView":7,
			"componentType":5123,
			"count":32544,
			"type":"SCALAR"
		}
	],
	"bufferViews":[
		{
			"buffer":0,
			"byteLength":7068,
			"byteOffset":0,
			"target":34962
		},
		{
			"buffer":0,
			"byteLength":7068,
			"byteOffset":7068,
			"target":34962
		},
		{
			"buffer":0,
			"byteLength":4712,
			"byteOffset":14136,
			"target":34962
		},
		{
			"buffer":0,
			"byteLength":3252,
			"byteOffset":18848,
			"target":34963
		},
		{
			"buffer":0,
			"byteLength":77808,
			"byteOffset":22100,
			"target":34962
		},
		{
			"buffer":0,
			"byteLength":77808,
			"byteOffset":99908,
			"target":34962
		},
		{
			"buffer":0,
			"byteLength":51872,
			"byteOffset":177716,
			"target":34962
		},
		{
			"buffer":0,
			"byteLength":65088,
			"byteOffset":229588,
			"target":34963
		}
	],
	"samplers":[
		{
			"magFilter":9729,
			"minFilter":9987
		}
	],
	"buffers":[
		{
			"byteLength":294676,
			"uri":"fractal_pergola_01.bin"
		}
	]
}
