{
	"asset":{
		"generator":"Khronos glTF Blender I/O v4.0.44",
		"version":"2.0"
	},
	"extensionsUsed":[
		"KHR_materials_transmission",
		"KHR_materials_specular",
		"KHR_materials_ior"
	],
	"scene":0,
	"scenes":[
		{
			"name":"Scene",
			"nodes":[
				1
			]
		}
	],
	"nodes":[
		{
			"mesh":0,
			"name":"half_arch_smooth_colliders",
			"translation":[
				-6.103515625e-05,
				-1.8055877685546875,
				0
			]
		},
		{
			"children":[
				0
			],
			"mesh":1,
			"name":"half_arch_smooth",
			"rotation":[
				0.7071068286895752,
				0,
				0,
				0.7071068286895752
			],
			"scale":[
				0.24543099105358124,
				0.24543099105358124,
				0.24543099105358124
			],
			"translation":[
				-219.37998962402344,
				0,
				-62.57633972167969
			]
		}
	],
	"materials":[
		{
			"doubleSided":true,
			"extensions":{
				"KHR_materials_transmission":{
					"transmissionFactor":1
				},
				"KHR_materials_specular":{
					"specularColorFactor":[
						2.0,
						2.0,
						2.0
					]
				},
				"KHR_materials_ior":{
					"ior":1.5199999809265137
				}
			},
			"name":"concrete_plain",
			"pbrMetallicRoughness":{
				"baseColorTexture":{
					"index":0
				},
				"metallicFactor":0
			}
		}
	],
	"meshes":[
		{
			"name":"half_arch_colliders003",
			"primitives":[
				{
					"attributes":{
						"POSITION":0,
						"NORMAL":1,
						"TEXCOORD_0":2
					},
					"indices":3
				}
			]
		},
		{
			"name":"half_arch_smooth",
			"primitives":[
				{
					"attributes":{
						"POSITION":4,
						"NORMAL":5,
						"TEXCOORD_0":6
					},
					"indices":7,
					"material":0
				}
			]
		}
	],
	"textures":[
		{
			"sampler":0,
			"source":0
		}
	],
	"images":[
		{
			"mimeType":"image/jpeg",
			"name":"concrete_big_diff",
			"uri":"concrete_big_diff.jpg"
		}
	],
	"accessors":[
		{
			"bufferView":0,
			"componentType":5126,
			"count":1141,
			"max":[
				405.9364929199219,
				424.1393127441406,
				10.870699882507324
			],
			"min":[
				-401.17529296875,
				-4.5258002281188965,
				-187.88720703125
			],
			"type":"VEC3"
		},
		{
			"bufferView":1,
			"componentType":5126,
			"count":1141,
			"type":"VEC3"
		},
		{
			"bufferView":2,
			"componentType":5126,
			"count":1141,
			"type":"VEC2"
		},
		{
			"bufferView":3,
			"componentType":5123,
			"count":3318,
			"type":"SCALAR"
		},
		{
			"bufferView":4,
			"componentType":5126,
			"count":3398,
			"max":[
				398.3481140136719,
				419.2344970703125,
				3.3701000213623047
			],
			"min":[
				-398.25079345703125,
				-0.0851999968290329,
				-181.83709716796875
			],
			"type":"VEC3"
		},
		{
			"bufferView":5,
			"componentType":5126,
			"count":3398,
			"type":"VEC3"
		},
		{
			"bufferView":6,
			"componentType":5126,
			"count":3398,
			"type":"VEC2"
		},
		{
			"bufferView":7,
			"componentType":5123,
			"count":13656,
			"type":"SCALAR"
		}
	],
	"bufferViews":[
		{
			"buffer":0,
			"byteLength":13692,
			"byteOffset":0,
			"target":34962
		},
		{
			"buffer":0,
			"byteLength":13692,
			"byteOffset":13692,
			"target":34962
		},
		{
			"buffer":0,
			"byteLength":9128,
			"byteOffset":27384,
			"target":34962
		},
		{
			"buffer":0,
			"byteLength":6636,
			"byteOffset":36512,
			"target":34963
		},
		{
			"buffer":0,
			"byteLength":40776,
			"byteOffset":43148,
			"target":34962
		},
		{
			"buffer":0,
			"byteLength":40776,
			"byteOffset":83924,
			"target":34962
		},
		{
			"buffer":0,
			"byteLength":27184,
			"byteOffset":124700,
			"target":34962
		},
		{
			"buffer":0,
			"byteLength":27312,
			"byteOffset":151884,
			"target":34963
		}
	],
	"samplers":[
		{
			"magFilter":9729,
			"minFilter":9987
		}
	],
	"buffers":[
		{
			"byteLength":179196,
			"uri":"fractal_arch_smooth.bin"
		}
	]
}
