{
	"asset":{
		"generator":"Khronos glTF Blender I/O v4.0.44",
		"version":"2.0"
	},
	"extensionsUsed":[
		"KHR_materials_transmission",
		"KHR_materials_specular",
		"KHR_materials_ior"
	],
	"scene":0,
	"scenes":[
		{
			"name":"Scene",
			"nodes":[
				1
			]
		}
	],
	"nodes":[
		{
			"mesh":0,
			"name":"half_arch_grooves_colliders"
		},
		{
			"children":[
				0
			],
			"mesh":1,
			"name":"half_arch_grooves",
			"rotation":[
				0.7071067690849304,
				0,
				0,
				0.7071068286895752
			],
			"scale":[
				0.22115792334079742,
				0.22115792334079742,
				0.22115792334079742
			],
			"translation":[
				0,
				0,
				-62.45420837402344
			]
		}
	],
	"materials":[
		{
			"doubleSided":true,
			"extensions":{
				"KHR_materials_transmission":{
					"transmissionFactor":1
				},
				"KHR_materials_specular":{
					"specularColorFactor":[
						2.0,
						2.0,
						2.0
					]
				},
				"KHR_materials_ior":{
					"ior":1.5199999809265137
				}
			},
			"name":"concrete_plain",
			"pbrMetallicRoughness":{
				"baseColorTexture":{
					"index":0
				},
				"metallicFactor":0
			}
		}
	],
	"meshes":[
		{
			"name":"half_arch_colliders",
			"primitives":[
				{
					"attributes":{
						"POSITION":0,
						"NORMAL":1,
						"TEXCOORD_0":2
					},
					"indices":3
				}
			]
		},
		{
			"name":"half_arch_grooves",
			"primitives":[
				{
					"attributes":{
						"POSITION":4,
						"NORMAL":5,
						"TEXCOORD_0":6
					},
					"indices":7,
					"material":0
				}
			]
		}
	],
	"textures":[
		{
			"sampler":0,
			"source":0
		}
	],
	"images":[
		{
			"mimeType":"image/jpeg",
			"name":"concrete_big_diff",
			"uri":"concrete_big_diff.jpg"
		}
	],
	"accessors":[
		{
			"bufferView":0,
			"componentType":5126,
			"count":1238,
			"max":[
				400.0668029785156,
				420.6705017089844,
				6.155600070953369
			],
			"min":[
				-399.9695129394531,
				-0.9657999873161316,
				-183.1363983154297
			],
			"type":"VEC3"
		},
		{
			"bufferView":1,
			"componentType":5126,
			"count":1238,
			"type":"VEC3"
		},
		{
			"bufferView":2,
			"componentType":5126,
			"count":1238,
			"type":"VEC2"
		},
		{
			"bufferView":3,
			"componentType":5123,
			"count":3318,
			"type":"SCALAR"
		},
		{
			"bufferView":4,
			"componentType":5126,
			"count":6939,
			"max":[
				396.474609375,
				418.8193054199219,
				0.5658000111579895
			],
			"min":[
				-396.37750244140625,
				3.2804999351501465,
				-179.1219940185547
			],
			"type":"VEC3"
		},
		{
			"bufferView":5,
			"componentType":5126,
			"count":6939,
			"type":"VEC3"
		},
		{
			"bufferView":6,
			"componentType":5126,
			"count":6939,
			"type":"VEC2"
		},
		{
			"bufferView":7,
			"componentType":5123,
			"count":29040,
			"type":"SCALAR"
		}
	],
	"bufferViews":[
		{
			"buffer":0,
			"byteLength":14856,
			"byteOffset":0,
			"target":34962
		},
		{
			"buffer":0,
			"byteLength":14856,
			"byteOffset":14856,
			"target":34962
		},
		{
			"buffer":0,
			"byteLength":9904,
			"byteOffset":29712,
			"target":34962
		},
		{
			"buffer":0,
			"byteLength":6636,
			"byteOffset":39616,
			"target":34963
		},
		{
			"buffer":0,
			"byteLength":83268,
			"byteOffset":46252,
			"target":34962
		},
		{
			"buffer":0,
			"byteLength":83268,
			"byteOffset":129520,
			"target":34962
		},
		{
			"buffer":0,
			"byteLength":55512,
			"byteOffset":212788,
			"target":34962
		},
		{
			"buffer":0,
			"byteLength":58080,
			"byteOffset":268300,
			"target":34963
		}
	],
	"samplers":[
		{
			"magFilter":9729,
			"minFilter":9987
		}
	],
	"buffers":[
		{
			"byteLength":326380,
			"uri":"fractal_arch_grooves.bin"
		}
	]
}
